{
 "cells": [
  {
   "cell_type": "code",
   "execution_count": 10,
   "metadata": {},
   "outputs": [
    {
     "name": "stdout",
     "output_type": "stream",
     "text": [
      "Reading package lists...\n",
      "Building dependency tree...\n",
      "Reading state information...\n",
      "ffmpeg is already the newest version (7:3.4.8-0ubuntu0.2).\n",
      "0 upgraded, 0 newly installed, 0 to remove and 130 not upgraded.\n"
     ]
    }
   ],
   "source": [
    "!apt-get install -yq ffmpeg"
   ]
  },
  {
   "cell_type": "code",
   "execution_count": 22,
   "metadata": {},
   "outputs": [],
   "source": [
    "!mkdir -p data/ffmpeg/0"
   ]
  },
  {
   "cell_type": "code",
   "execution_count": 46,
   "metadata": {},
   "outputs": [
    {
     "name": "stdout",
     "output_type": "stream",
     "text": [
      "ffmpeg version 3.4.8-0ubuntu0.2 Copyright (c) 2000-2020 the FFmpeg developers\n",
      "  built with gcc 7 (Ubuntu/Linaro 7.5.0-3ubuntu1~18.04)\n",
      "  configuration: --prefix=/usr --extra-version=0ubuntu0.2 --toolchain=hardened --libdir=/usr/lib/aarch64-linux-gnu --incdir=/usr/include/aarch64-linux-gnu --enable-gpl --disable-stripping --enable-avresample --enable-avisynth --enable-gnutls --enable-ladspa --enable-libass --enable-libbluray --enable-libbs2b --enable-libcaca --enable-libcdio --enable-libflite --enable-libfontconfig --enable-libfreetype --enable-libfribidi --enable-libgme --enable-libgsm --enable-libmp3lame --enable-libmysofa --enable-libopenjpeg --enable-libopenmpt --enable-libopus --enable-libpulse --enable-librubberband --enable-librsvg --enable-libshine --enable-libsnappy --enable-libsoxr --enable-libspeex --enable-libssh --enable-libtheora --enable-libtwolame --enable-libvorbis --enable-libvpx --enable-libwavpack --enable-libwebp --enable-libx265 --enable-libxml2 --enable-libxvid --enable-libzmq --enable-libzvbi --enable-omx --enable-openal --enable-opengl --enable-sdl2 --enable-libdc1394 --enable-libdrm --enable-libiec61883 --enable-chromaprint --enable-frei0r --enable-libopencv --enable-libx264 --enable-shared\n",
      "  libavutil      55. 78.100 / 55. 78.100\n",
      "  libavcodec     57.107.100 / 57.107.100\n",
      "  libavformat    57. 83.100 / 57. 83.100\n",
      "  libavdevice    57. 10.100 / 57. 10.100\n",
      "  libavfilter     6.107.100 /  6.107.100\n",
      "  libavresample   3.  7.  0 /  3.  7.  0\n",
      "  libswscale      4.  8.100 /  4.  8.100\n",
      "  libswresample   2.  9.100 /  2.  9.100\n",
      "  libpostproc    54.  7.100 / 54.  7.100\n",
      "Input #0, mov,mp4,m4a,3gp,3g2,mj2, from 'zoom_0.mp4':\n",
      "  Metadata:\n",
      "    major_brand     : mp42\n",
      "    minor_version   : 0\n",
      "    compatible_brands: isommp42\n",
      "    creation_time   : 2021-07-22T03:38:51.000000Z\n",
      "  Duration: 01:05:20.16, start: 0.000000, bitrate: 1533 kb/s\n",
      "    Stream #0:0(und): Audio: aac (LC) (mp4a / 0x6134706D), 32000 Hz, mono, fltp, 126 kb/s (default)\n",
      "    Metadata:\n",
      "      creation_time   : 2021-07-22T03:38:51.000000Z\n",
      "      handler_name    : AAC audio\n",
      "    Stream #0:1(und): Video: h264 (High) (avc1 / 0x31637661), yuv420p, 3840x2160, 1405 kb/s, 25 fps, 25 tbr, 30k tbn, 60k tbc (default)\n",
      "    Metadata:\n",
      "      creation_time   : 2021-07-22T03:38:51.000000Z\n",
      "      handler_name    : H.264/AVC video\n",
      "      encoder         : AVC Coding\n",
      "Stream mapping:\n",
      "  Stream #0:1 -> #0:0 (h264 (native) -> mjpeg (native))\n",
      "Press [q] to stop, [?] for help\n",
      "\u001b[1;34m[swscaler @ 0x55a5294be0] \u001b[0m\u001b[0;33mdeprecated pixel format used, make sure you did set range correctly\n",
      "\u001b[0mOutput #0, image2, to 'data/ffmpeg/0/extract%04d.jpg':\n",
      "  Metadata:\n",
      "    major_brand     : mp42\n",
      "    minor_version   : 0\n",
      "    compatible_brands: isommp42\n",
      "    encoder         : Lavf57.83.100\n",
      "    Stream #0:0(und): Video: mjpeg, yuvj420p(pc), 1920x1080, q=2-31, 200 kb/s, 0.05 fps, 0.05 tbn, 0.05 tbc (default)\n",
      "    Metadata:\n",
      "      creation_time   : 2021-07-22T03:38:51.000000Z\n",
      "      handler_name    : H.264/AVC video\n",
      "      encoder         : Lavc57.107.100 mjpeg\n",
      "    Side data:\n",
      "      cpb: bitrate max/min/avg: 0/0/200000 buffer size: 0 vbv_delay: -1\n",
      "frame=  198 fps=0.0 q=1.6 Lsize=N/A time=01:06:00.00 bitrate=N/A dup=0 drop=97806 speed=0.691x    \n",
      "video:69359kB audio:0kB subtitle:0kB other streams:0kB global headers:0kB muxing overhead: unknown\n"
     ]
    }
   ],
   "source": [
    "!ffmpeg -i zoom_0.mp4 -s 1920x1080 -frames:v 500 -r 0.05 data/ffmpeg/0/extract%04d.jpg"
   ]
  },
  {
   "cell_type": "code",
   "execution_count": 65,
   "metadata": {},
   "outputs": [],
   "source": [
    "!rm -rf ./data/faces"
   ]
  },
  {
   "cell_type": "code",
   "execution_count": 66,
   "metadata": {},
   "outputs": [],
   "source": [
    "import os\n",
    "\n",
    "from facenet_pytorch import MTCNN\n",
    "import torch\n",
    "from torchvision import datasets\n",
    "from IPython import display\n",
    "from pathlib import Path"
   ]
  },
  {
   "cell_type": "code",
   "execution_count": 67,
   "metadata": {},
   "outputs": [
    {
     "name": "stdout",
     "output_type": "stream",
     "text": [
      "Running on device: cuda:0\n"
     ]
    }
   ],
   "source": [
    "device = torch.device('cuda:0' if torch.cuda.is_available() else 'cpu')\n",
    "print(f'Running on device: {device}')"
   ]
  },
  {
   "cell_type": "code",
   "execution_count": 68,
   "metadata": {},
   "outputs": [],
   "source": [
    "mtcnn = MTCNN(keep_all=True, margin=0, min_face_size=60, thresholds=[0.6, 0.7, 0.7], \n",
    "              factor=0.709, post_process=True, device=device)\n",
    "dataset = datasets.ImageFolder('./data/ffmpeg')"
   ]
  },
  {
   "cell_type": "code",
   "execution_count": 69,
   "metadata": {},
   "outputs": [],
   "source": [
    "for idx_frame, (frame, y) in enumerate(dataset):\n",
    "    boxes, _ = mtcnn.detect(frame)\n",
    "    \n",
    "    if boxes is not None:\n",
    "        for idx_box, box in enumerate(boxes):\n",
    "            \n",
    "            image_dir = Path(f'./data/faces/')\n",
    "            image_dir.mkdir(parents=True, exist_ok=True)\n",
    "    \n",
    "            cropped_img = frame.crop(box).resize((85, 120))\n",
    "#             display.display(cropped_img, display_id=True)\n",
    "            cropped_img.save(f'{image_dir}/{idx_frame}_{idx_box}.jpg')\n",
    "        "
   ]
  },
  {
   "cell_type": "code",
   "execution_count": null,
   "metadata": {},
   "outputs": [],
   "source": []
  }
 ],
 "metadata": {
  "kernelspec": {
   "display_name": "Python 3",
   "language": "python",
   "name": "python3"
  },
  "language_info": {
   "codemirror_mode": {
    "name": "ipython",
    "version": 3
   },
   "file_extension": ".py",
   "mimetype": "text/x-python",
   "name": "python",
   "nbconvert_exporter": "python",
   "pygments_lexer": "ipython3",
   "version": "3.6.9"
  }
 },
 "nbformat": 4,
 "nbformat_minor": 4
}
